#Comment line ignore any data following # character 
#Hierarchical Translation and Rotation (.htr) file 
[Header]	
#Header keywords are followed by a single value 
FileType HTR		#Single word string
DataType HTRS		#Translation followed by rotation and scale data
FileVersion 1		#integer
NumSegments 84		#integer
NumFrames 2		#integer
DataFrameRate 30		#integer, data frame rate in this file
EulerRotationOrder ZYX
CalibrationUnits mm
RotationUnits Degrees
GlobalAxisofGravity Y
BoneLengthAxis Y
ScaleFactor 1.00
[SegmentNames&Hierarchy]
#CHILD	PARENT
MASTER GLOBAL
root MASTER
chest root
L_mid_tent01 root
R_mid_tent01 root
spine01 root
Bip01_Neck chest
L_humerus chest
R_humerus chest
weapon_bone chest
Bip01_Head Bip01_Neck
eye_left_bone Bip01_Head
eye_right_bone Bip01_Head
L_forearm L_humerus
L_front_hand L_forearm
L_weapon_bone L_forearm
L_front_hand01_01 L_front_hand
L_front_hand02_01 L_front_hand
L_front_hand03_01 L_front_hand
L_front_hand01_02 L_front_hand01_01
L_front_hand02_02 L_front_hand02_01
L_front_hand03_02 L_front_hand03_01
R_forearm R_humerus
R_front_hand R_forearm
R_weapon_bone R_forearm
R_front_hand01_01 R_front_hand
R_front_hand02_01 R_front_hand
R_front_hand03_01 R_front_hand
R_front_hand01_02 R_front_hand01_01
R_front_hand02_02 R_front_hand02_01
R_front_hand03_02 R_front_hand03_01
null_rope01_connect L_mid_tent01
Rope1_Seg01 null_rope01_connect
Rope1_Seg02 Rope1_Seg01
Rope1_Seg03 Rope1_Seg02
Rope1_Seg04 Rope1_Seg03
Rope1_Seg05 Rope1_Seg04
Rope1_Seg06 Rope1_Seg05
Rope1_Seg07 Rope1_Seg06
Rope1_Seg09 Rope1_Seg07
L_mid_hand01 Rope1_Seg09
L_mid_hand02 Rope1_Seg09
L_mid_hand03 Rope1_Seg09
null_rope02_connect R_mid_tent01
Rope2_Seg01 null_rope02_connect
Rope2_Seg02 Rope2_Seg01
Rope2_Seg03 Rope2_Seg02
Rope2_Seg04 Rope2_Seg03
Rope2_Seg05 Rope2_Seg04
Rope2_Seg06 Rope2_Seg05
Rope2_Seg07 Rope2_Seg06
Rope2_Seg09 Rope2_Seg07
R_mid_hand01 Rope2_Seg09
R_mid_hand02 Rope2_Seg09
R_mid_hand03 Rope2_Seg09
spine02 spine01
spine03 spine02
pelvis spine03
null_rope03_connect pelvis
null_rope04_connect pelvis
Rope3_Seg01 null_rope03_connect
Rope3_Seg02 Rope3_Seg01
Rope3_Seg03 Rope3_Seg02
Rope3_Seg04 Rope3_Seg03
Rope3_Seg05 Rope3_Seg04
Rope3_Seg06 Rope3_Seg05
Rope3_Seg07 Rope3_Seg06
Rope3_Seg08 Rope3_Seg07
Rope3_Seg09 Rope3_Seg08
R_rear_hand01 Rope3_Seg09
R_rear_hand02 Rope3_Seg09
R_rear_hand03 Rope3_Seg09
Rope4_Seg01 null_rope04_connect
Rope4_Seg02 Rope4_Seg01
Rope4_Seg03 Rope4_Seg02
Rope4_Seg04 Rope4_Seg03
Rope4_Seg05 Rope4_Seg04
Rope4_Seg06 Rope4_Seg05
Rope4_Seg07 Rope4_Seg06
Rope4_Seg08 Rope4_Seg07
Rope4_Seg09 Rope4_Seg08
L_rear_hand01 Rope4_Seg09
L_rear_hand02 Rope4_Seg09
L_rear_hand03 Rope4_Seg09
[BasePosition]
#SegmentName Tx, Ty, Tz, Rx, Ry, Rz, BoneLength
MASTER 0.000000 0.000000 0.000000 -90.000000 0.000000 0.000000 10.000000 
root 0.000000 0.000000 0.000000 0.000000 0.000000 0.000000 10.000000 
chest 0.000000 0.000000 0.000000 0.000000 0.000000 0.000000 10.000000 
L_mid_tent01 0.000000 0.000000 0.000000 0.000000 0.000000 0.000000 10.000000 
R_mid_tent01 0.000000 0.000000 0.000000 0.000000 0.000000 0.000000 10.000000 
spine01 0.000000 0.000000 0.000000 0.000000 0.000000 0.000000 10.000000 
Bip01_Neck 0.000000 0.000000 0.000000 0.000000 0.000000 0.000000 10.000000 
L_humerus 0.000000 0.000000 0.000000 0.000000 0.000000 0.000000 10.000000 
R_humerus 0.000000 0.000000 0.000000 0.000000 0.000000 0.000000 10.000000 
weapon_bone 0.000000 0.000000 0.000000 0.000000 0.000000 0.000000 10.000000 
Bip01_Head 0.000000 0.000000 0.000000 0.000000 0.000000 0.000000 10.000000 
eye_left_bone 0.000000 0.000000 0.000000 0.000000 0.000000 0.000000 10.000000 
eye_right_bone 0.000000 0.000000 0.000000 0.000000 0.000000 0.000000 10.000000 
L_forearm 0.000000 0.000000 0.000000 0.000000 0.000000 0.000000 10.000000 
L_front_hand 0.000000 0.000000 0.000000 0.000000 0.000000 0.000000 10.000000 
L_weapon_bone 0.000000 0.000000 0.000000 0.000000 0.000000 0.000000 10.000000 
L_front_hand01_01 0.000000 0.000000 0.000000 0.000000 0.000000 0.000000 10.000000 
L_front_hand02_01 0.000000 0.000000 0.000000 0.000000 0.000000 0.000000 10.000000 
L_front_hand03_01 0.000000 0.000000 0.000000 0.000000 0.000000 0.000000 10.000000 
L_front_hand01_02 0.000000 0.000000 0.000000 0.000000 0.000000 0.000000 10.000000 
L_front_hand02_02 0.000000 0.000000 0.000000 0.000000 0.000000 0.000000 10.000000 
L_front_hand03_02 0.000000 0.000000 0.000000 0.000000 0.000000 0.000000 10.000000 
R_forearm 0.000000 0.000000 0.000000 0.000000 0.000000 0.000000 10.000000 
R_front_hand 0.000000 0.000000 0.000000 0.000000 0.000000 0.000000 10.000000 
R_weapon_bone 0.000000 0.000000 0.000000 0.000000 0.000000 0.000000 10.000000 
R_front_hand01_01 0.000000 0.000000 0.000000 0.000000 0.000000 0.000000 10.000000 
R_front_hand02_01 0.000000 0.000000 0.000000 0.000000 0.000000 0.000000 10.000000 
R_front_hand03_01 0.000000 0.000000 0.000000 0.000000 0.000000 0.000000 10.000000 
R_front_hand01_02 0.000000 0.000000 0.000000 0.000000 0.000000 0.000000 10.000000 
R_front_hand02_02 0.000000 0.000000 0.000000 0.000000 0.000000 0.000000 10.000000 
R_front_hand03_02 0.000000 0.000000 0.000000 0.000000 0.000000 0.000000 10.000000 
null_rope01_connect 0.000000 0.000000 0.000000 0.000000 0.000000 0.000000 10.000000 
Rope1_Seg01 0.000000 0.000000 0.000000 0.000000 0.000000 0.000000 10.000000 
Rope1_Seg02 0.000000 0.000000 0.000000 0.000000 0.000000 0.000000 10.000000 
Rope1_Seg03 0.000000 0.000000 0.000000 0.000000 0.000000 0.000000 10.000000 
Rope1_Seg04 0.000000 0.000000 0.000000 0.000000 0.000000 0.000000 10.000000 
Rope1_Seg05 0.000000 0.000000 0.000000 0.000000 0.000000 0.000000 10.000000 
Rope1_Seg06 0.000000 0.000000 0.000000 0.000000 0.000000 0.000000 10.000000 
Rope1_Seg07 0.000000 0.000000 0.000000 0.000000 0.000000 0.000000 10.000000 
Rope1_Seg09 0.000000 0.000000 0.000000 0.000000 0.000000 0.000000 10.000000 
L_mid_hand01 0.000000 0.000000 0.000000 0.000000 0.000000 0.000000 10.000000 
L_mid_hand02 0.000000 0.000000 0.000000 0.000000 0.000000 0.000000 10.000000 
L_mid_hand03 0.000000 0.000000 0.000000 0.000000 0.000000 0.000000 10.000000 
null_rope02_connect 0.000000 0.000000 0.000000 0.000000 0.000000 0.000000 10.000000 
Rope2_Seg01 0.000000 0.000000 0.000000 0.000000 0.000000 0.000000 10.000000 
Rope2_Seg02 0.000000 0.000000 0.000000 0.000000 0.000000 0.000000 10.000000 
Rope2_Seg03 0.000000 0.000000 0.000000 0.000000 0.000000 0.000000 10.000000 
Rope2_Seg04 0.000000 0.000000 0.000000 0.000000 0.000000 0.000000 10.000000 
Rope2_Seg05 0.000000 0.000000 0.000000 0.000000 0.000000 0.000000 10.000000 
Rope2_Seg06 0.000000 0.000000 0.000000 0.000000 0.000000 0.000000 10.000000 
Rope2_Seg07 0.000000 0.000000 0.000000 0.000000 0.000000 0.000000 10.000000 
Rope2_Seg09 0.000000 0.000000 0.000000 0.000000 0.000000 0.000000 10.000000 
R_mid_hand01 0.000000 0.000000 0.000000 0.000000 0.000000 0.000000 10.000000 
R_mid_hand02 0.000000 0.000000 0.000000 0.000000 0.000000 0.000000 10.000000 
R_mid_hand03 0.000000 0.000000 0.000000 0.000000 0.000000 0.000000 10.000000 
spine02 0.000000 0.000000 0.000000 0.000000 0.000000 0.000000 10.000000 
spine03 0.000000 0.000000 0.000000 0.000000 0.000000 0.000000 10.000000 
pelvis 0.000000 0.000000 0.000000 0.000000 0.000000 0.000000 10.000000 
null_rope03_connect 0.000000 0.000000 0.000000 0.000000 0.000000 0.000000 10.000000 
null_rope04_connect 0.000000 0.000000 0.000000 0.000000 0.000000 0.000000 10.000000 
Rope3_Seg01 0.000000 0.000000 0.000000 0.000000 0.000000 0.000000 10.000000 
Rope3_Seg02 0.000000 0.000000 0.000000 0.000000 0.000000 0.000000 10.000000 
Rope3_Seg03 0.000000 0.000000 0.000000 0.000000 0.000000 0.000000 10.000000 
Rope3_Seg04 0.000000 0.000000 0.000000 0.000000 0.000000 0.000000 10.000000 
Rope3_Seg05 0.000000 0.000000 0.000000 0.000000 0.000000 0.000000 10.000000 
Rope3_Seg06 0.000000 0.000000 0.000000 0.000000 0.000000 0.000000 10.000000 
Rope3_Seg07 0.000000 0.000000 0.000000 0.000000 0.000000 0.000000 10.000000 
Rope3_Seg08 0.000000 0.000000 0.000000 0.000000 0.000000 0.000000 10.000000 
Rope3_Seg09 0.000000 0.000000 0.000000 0.000000 0.000000 0.000000 10.000000 
R_rear_hand01 0.000000 0.000000 0.000000 0.000000 0.000000 0.000000 10.000000 
R_rear_hand02 0.000000 0.000000 0.000000 0.000000 0.000000 0.000000 10.000000 
R_rear_hand03 0.000000 0.000000 0.000000 0.000000 0.000000 0.000000 10.000000 
Rope4_Seg01 0.000000 0.000000 0.000000 0.000000 0.000000 0.000000 10.000000 
Rope4_Seg02 0.000000 0.000000 0.000000 0.000000 0.000000 0.000000 10.000000 
Rope4_Seg03 0.000000 0.000000 0.000000 0.000000 0.000000 0.000000 10.000000 
Rope4_Seg04 0.000000 0.000000 0.000000 0.000000 0.000000 0.000000 10.000000 
Rope4_Seg05 0.000000 0.000000 0.000000 0.000000 0.000000 0.000000 10.000000 
Rope4_Seg06 0.000000 0.000000 0.000000 0.000000 0.000000 0.000000 10.000000 
Rope4_Seg07 0.000000 0.000000 0.000000 0.000000 0.000000 0.000000 10.000000 
Rope4_Seg08 0.000000 0.000000 0.000000 0.000000 0.000000 0.000000 10.000000 
Rope4_Seg09 0.000000 0.000000 0.000000 0.000000 0.000000 0.000000 10.000000 
L_rear_hand01 0.000000 0.000000 0.000000 0.000000 0.000000 0.000000 10.000000 
L_rear_hand02 0.000000 0.000000 0.000000 0.000000 0.000000 0.000000 10.000000 
L_rear_hand03 0.000000 0.000000 0.000000 0.000000 0.000000 0.000000 10.000000 
#Beginning of Data. Separated by tabs
#Fr	Tx	Ty	Tz	Rx	Ry	Rz	SF
[MASTER]
14 0.000005 62.822109 0.000000 0.001660 0.001660 0.001660 62.822113
15 0.000005 62.822109 0.000000 0.001660 0.001660 0.001660 62.822113
[root]
14 -16.502295 -62.822117 1500.000000 -57.369183 -23.681877 -97.357864 1501.405640
15 -16.502295 -62.822117 1500.000000 -56.862633 -23.619158 -97.465355 1501.405640
[chest]
14 -84.512650 -34.090519 0.000000 13.976719 -16.793125 169.962112 91.129311
15 -84.512650 -34.090519 0.000000 14.158946 -18.278915 169.617416 91.129311
[L_mid_tent01]
14 27.299543 22.177471 -249.917984 47.269474 88.592773 105.170464 252.380859
15 27.299540 22.177477 -249.917984 142.425995 88.588608 -157.429764 252.380859
[R_mid_tent01]
14 23.228794 24.509907 226.238495 -59.265476 -57.060261 -31.054790 228.744751
15 23.228794 24.509907 226.238495 -57.480972 -54.118481 -32.581192 228.744751
[spine01]
14 -0.361383 -0.195265 0.000000 -0.129452 0.363271 11.927110 0.410763
15 -0.361383 -0.195265 0.000000 -0.210444 0.356300 11.688210 0.410763
[Bip01_Neck]
14 165.484543 71.581718 0.000119 175.896118 1.177290 24.871180 180.302734
15 165.484543 71.581718 0.000119 175.896118 1.177290 24.871183 180.302734
[L_humerus]
14 -13.983130 -135.272980 -120.471481 -178.182999 80.635277 -88.750534 181.680161
15 -13.983130 -135.272980 -120.471481 170.940659 81.564270 -99.189354 181.680161
[R_humerus]
14 -13.983309 -135.273102 125.287651 -152.393524 -67.251335 -108.715019 184.909012
15 -13.983309 -135.273102 125.287651 -159.666153 -68.957909 -101.165993 184.909012
[weapon_bone]
14 235.964890 -300.705902 0.000000 0.000000 -89.951546 -128.212341 382.234833
15 235.964890 -300.705902 0.000000 0.000000 -89.951546 -128.212341 382.234833
[Bip01_Head]
14 261.355835 108.959457 -2.864220 23.984327 5.844077 -62.455231 283.173523
15 261.355835 108.959465 -2.864220 25.345865 5.842626 -62.453842 283.173523
[eye_left_bone]
14 -24.626970 125.451866 -64.772606 0.000000 -90.000000 -99.840431 143.318359
15 -24.626970 125.451866 -64.772606 0.000000 -90.000000 -99.840431 143.318359
[eye_right_bone]
14 -24.626970 125.451866 64.327362 0.000000 -89.960434 80.159386 143.117676
15 -24.626970 125.451866 64.327362 0.000000 -89.960434 80.159386 143.117676
[L_forearm]
14 322.776093 0.000000 -0.000119 0.000221 0.002337 -79.190704 322.776093
15 322.776093 0.000000 -0.000119 0.000183 0.002340 -81.045219 322.776093
[L_front_hand]
14 241.149185 -0.042021 -3.300071 -179.259476 -2.144217 -10.434330 241.171753
15 241.149185 -0.042021 -3.300071 -179.199997 -2.120301 -12.095465 241.171753
[L_weapon_bone]
14 156.183838 0.000000 0.000000 0.001871 0.001418 15.673879 156.183838
15 156.183838 0.000000 0.000000 0.001819 0.001483 11.609223 156.183838
[L_front_hand01_01]
14 86.095154 20.947098 -0.655860 0.182986 -0.567834 19.958769 88.609184
15 86.095154 20.947098 -0.655860 0.125454 -0.585564 25.985653 88.609184
[L_front_hand02_01]
14 86.935165 -11.437475 24.513514 118.442955 -18.202854 -9.953835 91.046425
15 86.935165 -11.437475 24.513514 119.555916 -23.477629 -13.078358 91.046425
[L_front_hand03_01]
14 86.637497 -14.123976 -20.424902 -119.720993 16.898657 -12.093071 90.126129
15 86.637497 -14.123976 -20.424902 -120.801201 22.108936 -15.315926 90.126129
[L_front_hand01_02]
14 71.020905 -0.000179 0.000030 0.000789 0.002211 -50.713764 71.020905
15 71.020905 -0.000179 0.000030 0.000660 0.002257 -57.378590 71.020905
[L_front_hand02_02]
14 71.020927 -0.000119 0.000060 0.000789 0.002211 -50.713764 71.020927
15 71.020927 -0.000119 0.000060 0.000660 0.002257 -57.378590 71.020927
[L_front_hand03_02]
14 71.020905 -0.000060 0.000060 0.000789 0.002211 -50.713764 71.020905
15 71.020905 -0.000060 0.000060 0.000660 0.002257 -57.378590 71.020905
[R_forearm]
14 322.776428 -0.000060 0.000030 0.202486 -0.063958 -72.616943 322.776428
15 322.776428 -0.000060 0.000030 0.202513 -0.063871 -72.665993 322.776428
[R_front_hand]
14 238.847015 -0.006795 2.210259 -1.729273 -0.004044 -78.816856 238.857239
15 238.847015 -0.006795 2.210259 -1.702877 -0.301881 -88.818344 238.857239
[R_weapon_bone]
14 155.664093 0.002503 -0.000030 0.003010 0.002119 -123.887856 155.664078
15 155.664093 0.002503 -0.000030 0.003089 0.002002 -119.504417 155.664078
[R_front_hand01_01]
14 87.624611 14.231146 22.918642 -118.471542 -18.329958 10.134301 91.683487
15 87.624611 14.231146 22.918642 -119.592041 -23.604755 13.266233 91.683487
[R_front_hand02_01]
14 89.356956 14.367283 -19.491137 119.808922 17.292225 12.573522 92.579636
15 89.356956 14.367283 -19.491137 120.909065 22.500397 15.813181 92.579636
[R_front_hand03_01]
14 87.286232 -22.307278 -0.143439 -0.258311 -0.371260 -20.342138 90.091743
15 87.286232 -22.307278 -0.143439 -0.214652 -0.399081 -26.372965 90.091743
[R_front_hand01_02]
14 71.020905 0.000060 0.000119 0.002211 0.000789 50.717430 71.020905
15 71.020905 0.000060 0.000119 0.002257 0.000660 57.379456 71.020905
[R_front_hand02_02]
14 71.020844 -0.000030 -0.000119 0.002211 0.000789 50.717430 71.020836
15 71.020844 -0.000030 -0.000119 0.002257 0.000660 57.379456 71.020836
[R_front_hand03_02]
14 71.020905 0.000000 0.000030 0.002211 0.000789 50.717430 71.020905
15 71.020905 0.000000 0.000030 0.002257 0.000660 57.379456 71.020905
[null_rope01_connect]
14 328.732483 0.000000 -0.000238 -117.658493 -21.610588 156.148392 328.732483
15 328.732483 0.000000 -0.000238 -120.602112 -20.873224 157.052750 328.732483
[Rope1_Seg01]
14 0.000000 0.000000 0.000000 101.697533 -41.943138 178.085190 0.000000
15 0.000000 0.000000 0.000000 102.100143 -41.943508 177.497360 0.000000
[Rope1_Seg02]
14 139.999863 -0.000179 0.000000 0.319907 -6.142706 -2.883484 139.999863
15 139.999863 -0.000179 0.000000 0.314840 -6.637979 -3.177664 139.999863
[Rope1_Seg03]
14 139.999924 0.000060 -0.000060 0.465814 -16.105413 -7.692200 139.999924
15 139.999924 0.000060 -0.000060 0.401416 -16.729101 -8.192383 139.999924
[Rope1_Seg04]
14 139.999924 -0.000060 -0.000119 8.782559 -48.034798 -40.090900 139.999924
15 139.999924 -0.000060 -0.000119 6.262764 -44.772812 -35.919842 139.999924
[Rope1_Seg05]
14 139.999832 0.000119 -0.000060 -3.022602 -28.199678 -21.730375 139.999832
15 139.999832 0.000119 -0.000060 -3.247554 -27.165699 -19.795523 139.999832
[Rope1_Seg06]
14 139.999954 0.000119 -0.000060 -2.715760 -11.116165 0.246117 139.999954
15 139.999954 0.000119 -0.000060 -2.686453 -10.851264 0.525218 139.999954
[Rope1_Seg07]
14 139.999985 0.000060 0.000000 -2.281924 -7.205126 0.769866 139.999985
15 139.999985 0.000060 0.000000 -2.217051 -6.587785 0.159004 139.999985
[Rope1_Seg09]
14 121.602913 0.000119 -0.000089 -89.793175 -1.359789 0.847147 121.602913
15 121.602913 0.000119 -0.000089 -89.793175 -1.359789 0.847147 121.602913
[L_mid_hand01]
14 103.859421 1.038730 8.195221 104.394287 -4.293108 -1.633501 104.187431
15 103.859421 1.038730 8.195221 104.445618 -6.473852 -2.195932 104.187431
[L_mid_hand02]
14 105.572853 -4.139662 -10.864139 -135.946564 7.240671 -6.824883 106.211075
15 105.572853 -4.139662 -10.864139 -136.174118 8.800064 -8.461082 106.211075
[L_mid_hand03]
14 104.641464 17.579376 -3.913581 -18.729256 1.210570 7.472292 106.179977
15 104.641464 17.579376 -3.913581 -18.668604 1.936293 9.606004 106.179977
[null_rope02_connect]
14 328.732849 0.000179 -0.000119 -143.226898 -44.547405 -41.737705 328.732849
15 328.732849 0.000179 -0.000119 -141.304886 -46.988060 -45.310528 328.732849
[Rope2_Seg01]
14 -0.000063 0.000140 0.000097 33.886257 -40.904167 -51.422028 0.000182
15 -0.000061 0.000141 0.000093 24.649961 -34.432137 -42.923569 0.000180
[Rope2_Seg02]
14 139.999741 -0.000060 -0.000119 -6.791675 8.205194 9.679970 139.999756
15 139.999741 -0.000060 -0.000119 -7.348871 5.609983 8.586378 139.999756
[Rope2_Seg03]
14 140.000107 0.000030 0.000000 -9.232499 8.479967 13.205950 140.000107
15 140.000107 0.000030 0.000000 -9.123013 5.432239 11.455284 140.000107
[Rope2_Seg04]
14 139.999802 0.000000 -0.000060 -9.568044 5.153004 15.935518 139.999802
15 139.999802 0.000000 -0.000060 -9.164639 2.491068 14.266968 139.999802
[Rope2_Seg05]
14 139.999985 -0.000060 0.000119 -6.279396 2.592949 12.055353 139.999985
15 139.999985 -0.000060 0.000119 -6.504728 0.864059 12.495873 139.999985
[Rope2_Seg06]
14 139.999893 -0.000030 -0.000119 -4.608582 3.804830 8.861291 139.999893
15 139.999893 -0.000030 -0.000119 -4.909417 3.730104 9.645449 139.999893
[Rope2_Seg07]
14 139.999893 0.000060 -0.000060 -4.369428 4.541698 8.032821 139.999893
15 139.999893 0.000060 -0.000060 -4.552173 4.983201 8.412185 139.999893
[Rope2_Seg09]
14 121.338966 0.000089 -0.000060 33.793236 -1.359788 -0.847141 121.338966
15 121.338966 0.000089 -0.000060 33.793236 -1.359788 -0.847141 121.338966
[R_mid_hand01]
14 104.680779 11.144459 -10.335981 -47.009079 7.397068 9.573339 105.778534
15 104.680779 11.144459 -10.335981 -46.801632 8.973898 11.064855 105.778534
[R_mid_hand02]
14 104.070427 2.443552 8.231699 75.492203 -8.101124 2.625587 104.424065
15 104.070427 2.443552 8.231699 75.403473 -10.192800 3.176565 104.424065
[R_mid_hand03]
14 106.028137 -11.221827 -5.996406 -164.713638 4.104007 -11.970159 106.788818
15 106.028137 -11.221827 -5.996406 -164.874466 4.674491 -14.062486 106.788818
[spine02]
14 129.756927 0.001550 0.000119 -0.086183 -4.036740 -6.642748 129.756927
15 129.756927 0.001550 0.000119 -0.070513 -4.011593 -6.848981 129.756927
[spine03]
14 78.894135 0.038474 -2.161917 1.790723 -0.163448 13.478022 78.923759
15 78.928665 0.032490 -1.824807 1.848313 -0.666443 15.336015 78.949760
[pelvis]
14 169.435242 0.051022 0.000000 0.001457 3.016125 -4.323350 169.435257
15 169.435242 0.051022 0.000000 -26.475668 1.412082 -3.684463 169.435257
[null_rope03_connect]
14 -1.257226 -2.466202 137.391083 13.366417 -58.682541 87.915848 137.418976
15 -1.257226 -2.466202 137.391083 47.720654 -83.500252 52.997879 137.418976
[null_rope04_connect]
14 -1.259640 -2.480268 -137.844437 13.366417 -58.682541 87.915848 137.872513
15 -1.259640 -2.480268 -137.844437 47.720654 -83.500252 52.997879 137.872513
[Rope3_Seg01]
14 0.000000 0.000000 0.000000 -147.470978 -46.240547 -60.672169 0.000000
15 0.000000 0.000000 0.000000 -151.550125 -34.520973 -44.712231 0.000000
[Rope3_Seg02]
14 139.999924 -0.000119 0.000060 -17.553854 10.281123 -26.972185 139.999924
15 139.999924 -0.000119 0.000060 -18.974255 0.198981 -26.325832 139.999924
[Rope3_Seg03]
14 139.999924 -0.000119 0.000119 -19.171183 16.236803 -15.375439 139.999924
15 139.999924 -0.000119 0.000119 -32.946510 9.617182 -17.416063 139.999924
[Rope3_Seg04]
14 139.999924 0.000119 0.000000 -14.463081 12.743811 -11.490223 139.999924
15 139.999924 0.000119 0.000000 -28.751535 11.990753 -11.094185 139.999924
[Rope3_Seg05]
14 139.999924 -0.000238 0.000060 -25.617664 19.037989 -20.715872 139.999924
15 139.999924 -0.000238 0.000060 -40.646938 24.824499 -15.963988 139.999924
[Rope3_Seg06]
14 139.999893 -0.000119 -0.000060 -12.960874 15.955752 -7.382683 139.999893
15 139.999893 -0.000119 -0.000060 -10.755246 18.715763 1.874521 139.999893
[Rope3_Seg07]
14 139.999771 0.000060 -0.000119 -3.850502 7.590669 -1.270518 139.999771
15 139.999771 0.000060 -0.000119 -2.032414 7.419588 2.576585 139.999771
[Rope3_Seg08]
14 139.999985 -0.000060 0.000000 -1.483108 4.132176 -0.413134 139.999985
15 139.999985 -0.000060 0.000000 -0.525787 3.892102 1.517920 139.999985
[Rope3_Seg09]
14 90.185997 -0.000179 -0.000060 89.793228 -1.359877 -0.847183 90.185997
15 90.185997 -0.000179 -0.000060 89.793228 -1.359877 -0.847183 90.185997
[R_rear_hand01]
14 103.366196 -6.073594 -10.757982 -156.102097 6.291099 -3.294061 104.101845
15 103.366196 -6.073594 -10.757982 -156.260391 6.888778 -4.662065 104.101845
[R_rear_hand02]
14 100.509819 12.039542 -7.992327 -38.693443 2.294951 5.884012 101.543350
15 100.509819 12.039542 -7.992327 -38.633274 3.224915 7.045919 101.543350
[R_rear_hand03]
14 101.539970 5.215704 5.435467 84.306572 -2.901716 4.150927 101.819031
15 101.539970 5.215704 5.435467 84.294785 -4.384020 4.300456 101.819031
[Rope4_Seg01]
14 -0.000009 -0.000063 -0.000097 40.600067 15.361678 -124.218330 0.000116
15 -0.000008 -0.000061 -0.000093 45.617241 -1.969180 -130.001450 0.000112
[Rope4_Seg02]
14 139.999985 0.000060 0.000119 -7.702322 4.159785 -21.161978 139.999985
15 139.999985 0.000060 0.000119 -12.679057 -10.865991 -25.376352 139.999985
[Rope4_Seg03]
14 139.999924 0.000000 -0.000238 -11.244300 12.614995 -22.535532 139.999924
15 139.999924 0.000000 -0.000238 -23.843508 3.024525 -20.753347 139.999924
[Rope4_Seg04]
14 139.999985 0.000000 0.000119 -7.626795 9.272336 -18.603716 139.999985
15 139.999985 0.000000 0.000119 -26.104496 2.319337 -20.836630 139.999985
[Rope4_Seg05]
14 139.999802 -0.000060 -0.000119 -24.797993 8.233762 -54.157059 139.999802
15 139.999802 -0.000060 -0.000119 -60.347271 15.419005 -53.745441 139.999802
[Rope4_Seg06]
14 139.999924 0.000000 0.000060 -12.188399 12.516740 -22.442627 139.999924
15 139.999924 0.000000 0.000060 -7.624241 20.775906 -7.275760 139.999924
[Rope4_Seg07]
14 139.999802 0.000000 0.000000 -2.313982 4.843104 -5.301588 139.999802
15 139.999802 0.000000 0.000000 -0.800174 6.555374 -1.198414 139.999802
[Rope4_Seg08]
14 139.999924 0.000000 0.000119 -2.443425 2.379774 -2.414336 139.999924
15 139.999924 0.000000 0.000119 -1.744997 3.184267 -0.536702 139.999924
[Rope4_Seg09]
14 90.185791 0.000060 0.000060 -135.617828 2.228885 0.850567 90.185791
15 90.185791 0.000060 0.000060 -135.617828 2.228885 0.850567 90.185791
[L_rear_hand01]
14 101.696655 -8.392275 -7.654577 -38.746677 -0.110146 176.843842 102.329041
15 101.696655 -8.392275 -7.654577 -38.734707 -1.082941 175.627792 102.329041
[L_rear_hand02]
14 102.726799 -1.568258 5.773216 84.314537 -0.574376 176.194839 102.900848
15 102.726799 -1.568258 5.773216 84.315697 0.973581 176.040802 102.900848
[L_rear_hand03]
14 104.552910 9.721220 -10.420293 -155.787659 -4.864432 -179.911652 105.519653
15 104.552910 9.721220 -10.420293 -155.919388 -5.502451 -178.482681 105.519653
